<?xml version="1.0" encoding="UTF-8"?>
<svg xmlns="http://www.w3.org/2000/svg" xmlns:xlink="http://www.w3.org/1999/xlink" width="24px" height="24px" viewBox="0 0 24 24" version="1.1">
<g id="surface1">
<path style=" stroke:none;fill-rule:nonzero;fill:rgb(95.294118%,95.686275%,94.901961%);fill-opacity:1;" d="M 14.25 22.125 C 12.34375 22.125 10.542969 21.242188 9.375 19.734375 L 9.265625 19.589844 C 9.214844 19.5625 9.160156 19.546875 9.101562 19.542969 C 9.066406 19.550781 9.035156 19.570312 9.007812 19.59375 C 8.957031 19.625 8.90625 19.664062 8.863281 19.707031 C 8.429688 20.035156 7.9375 20.273438 7.410156 20.40625 C 7.054688 20.5 6.691406 20.546875 6.324219 20.550781 C 4.917969 20.5625 3.601562 19.867188 2.8125 18.703125 C 2.148438 17.730469 1.957031 16.507812 2.296875 15.375 C 2.410156 14.988281 2.582031 14.621094 2.808594 14.289062 L 2.835938 14.25 C 2.933594 14.09375 2.945312 13.898438 2.859375 13.734375 C 2.84375 13.691406 2.820312 13.652344 2.789062 13.621094 L 2.757812 13.582031 C 1.421875 11.96875 1.136719 9.730469 2.027344 7.839844 C 2.917969 5.945312 4.820312 4.734375 6.914062 4.734375 C 7.273438 4.734375 7.632812 4.769531 7.984375 4.835938 L 8.019531 4.835938 C 8.316406 4.894531 8.625 4.789062 8.824219 4.5625 L 8.824219 4.542969 C 10.707031 2.179688 13.878906 1.265625 16.730469 2.253906 C 19.585938 3.246094 21.503906 5.929688 21.515625 8.953125 L 21.515625 9 C 21.515625 9.117188 21.515625 9.234375 21.515625 9.351562 C 21.5 9.714844 21.59375 10.074219 21.785156 10.382812 C 21.859375 10.507812 21.933594 10.644531 22 10.785156 C 22.328125 11.476562 22.5 12.230469 22.5 12.996094 C 22.503906 13.050781 22.503906 13.101562 22.5 13.15625 C 22.464844 14.398438 21.980469 15.589844 21.132812 16.5 C 20.917969 16.738281 20.683594 16.953125 20.429688 17.144531 C 20.371094 17.183594 20.328125 17.246094 20.3125 17.316406 C 20.246094 17.613281 20.15625 17.90625 20.042969 18.1875 C 19.636719 19.230469 18.957031 20.144531 18.078125 20.835938 C 16.984375 21.683594 15.636719 22.140625 14.25 22.125 Z M 14.25 22.125 "/>
<path style=" stroke:none;fill-rule:nonzero;fill:rgb(100%,84.705882%,20%);fill-opacity:1;" d="M 15.835938 12.027344 C 15.835938 14.160156 14.105469 15.890625 11.96875 15.890625 C 9.835938 15.890625 8.105469 14.160156 8.105469 12.027344 C 8.105469 9.890625 9.835938 8.160156 11.96875 8.160156 C 14.105469 8.160156 15.835938 9.890625 15.835938 12.027344 Z M 15.835938 12.027344 "/>
<path style=" stroke:none;fill-rule:nonzero;fill:rgb(98.823529%,95.686275%,82.352941%);fill-opacity:1;" d="M 9.6875 11.910156 L 9.601562 11.910156 C 9.5 11.890625 9.410156 11.828125 9.355469 11.738281 C 9.300781 11.652344 9.285156 11.546875 9.3125 11.445312 C 9.496094 10.699219 9.976562 10.0625 10.640625 9.6875 C 10.832031 9.585938 11.066406 9.660156 11.164062 9.851562 C 11.261719 10.039062 11.1875 10.273438 11 10.371094 C 10.535156 10.648438 10.199219 11.101562 10.066406 11.625 C 10.023438 11.796875 9.863281 11.917969 9.6875 11.910156 Z M 9.6875 11.910156 "/>
</g>
</svg>
