<?xml version="1.0" encoding="UTF-8"?>
<svg xmlns="http://www.w3.org/2000/svg" xmlns:xlink="http://www.w3.org/1999/xlink" width="24px" height="24px" viewBox="0 0 24 24" version="1.1">
<g id="surface1">
<path style=" stroke:none;fill-rule:nonzero;fill:rgb(40%,75.686275%,100%);fill-opacity:1;" d="M 8.304688 6.621094 C 8.304688 6.625 8.304688 6.632812 8.300781 6.636719 C 8.292969 8.03125 7.175781 9.15625 5.796875 9.15625 C 5.582031 9.15625 5.371094 9.128906 5.164062 9.074219 C 4.160156 8.800781 3.421875 7.9375 3.304688 6.902344 C 3.1875 5.863281 3.71875 4.859375 4.636719 4.367188 C 5.429688 3.949219 6.386719 3.992188 7.140625 4.476562 C 7.867188 4.949219 8.304688 5.753906 8.304688 6.621094 Z M 8.304688 6.621094 "/>
<path style=" stroke:none;fill-rule:nonzero;fill:rgb(30.588235%,71.764706%,100%);fill-opacity:1;" d="M 5.796875 4.082031 C 5.679688 4.082031 5.5625 4.089844 5.445312 4.105469 C 6.664062 4.28125 7.601562 5.339844 7.601562 6.621094 C 7.601562 7.898438 6.664062 8.957031 5.445312 9.132812 C 5.5625 9.148438 5.679688 9.15625 5.796875 9.15625 C 7.179688 9.15625 8.304688 8.019531 8.304688 6.621094 C 8.304688 5.21875 7.179688 4.082031 5.796875 4.082031 Z M 5.796875 4.082031 "/>
<path style=" stroke:none;fill-rule:nonzero;fill:rgb(30.588235%,71.764706%,100%);fill-opacity:1;" d="M 8.300781 6.636719 C 6.492188 9.105469 5.433594 10.253906 5.128906 10.082031 C 4.992188 10.003906 5.007812 9.667969 5.164062 9.074219 C 5.175781 7.683594 6.292969 6.554688 7.671875 6.554688 C 7.886719 6.554688 8.097656 6.582031 8.300781 6.636719 Z M 8.300781 6.636719 "/>
<path style=" stroke:none;fill-rule:nonzero;fill:rgb(100%,40%,70.196078%);fill-opacity:1;" d="M 6.015625 9.15625 C 6.015625 7.753906 4.890625 6.621094 3.507812 6.621094 C 2.125 6.621094 1 7.753906 1 9.15625 C 1 10.558594 2.125 11.695312 3.507812 11.695312 C 4.890625 11.695312 6.015625 10.558594 6.015625 9.15625 Z M 6.015625 9.15625 "/>
<path style=" stroke:none;fill-rule:nonzero;fill:rgb(100%,30.588235%,65.490196%);fill-opacity:1;" d="M 3.507812 6.621094 C 3.390625 6.621094 3.273438 6.628906 3.15625 6.644531 C 4.375 6.816406 5.3125 7.875 5.3125 9.15625 C 5.3125 10.4375 4.375 11.496094 3.15625 11.667969 C 3.273438 11.6875 3.390625 11.695312 3.507812 11.695312 C 4.890625 11.695312 6.015625 10.558594 6.015625 9.15625 C 6.015625 7.753906 4.890625 6.621094 3.507812 6.621094 Z M 3.507812 6.621094 "/>
<path style=" stroke:none;fill-rule:nonzero;fill:rgb(38.823529%,91.764706%,52.54902%);fill-opacity:1;" d="M 10.589844 9.492188 C 10.589844 8.089844 9.46875 6.953125 8.085938 6.953125 C 6.699219 6.953125 5.578125 8.089844 5.578125 9.492188 C 5.578125 10.890625 6.699219 12.027344 8.085938 12.027344 C 9.46875 12.027344 10.589844 10.890625 10.589844 9.492188 Z M 10.589844 9.492188 "/>
<path style=" stroke:none;fill-rule:nonzero;fill:rgb(23.529412%,89.803922%,40.784314%);fill-opacity:1;" d="M 8.085938 6.953125 C 7.96875 6.953125 7.851562 6.960938 7.734375 6.976562 C 8.953125 7.152344 9.886719 8.210938 9.886719 9.492188 C 9.886719 10.769531 8.953125 11.828125 7.734375 12.003906 C 7.851562 12.019531 7.96875 12.027344 8.085938 12.027344 C 9.46875 12.027344 10.589844 10.890625 10.589844 9.492188 C 10.589844 8.089844 9.46875 6.953125 8.085938 6.953125 Z M 8.085938 6.953125 "/>
<path style=" stroke:none;fill-rule:nonzero;fill:rgb(93.333333%,93.333333%,93.333333%);fill-opacity:1;" d="M 11.242188 9.738281 L 0.351562 9.738281 C 0.632812 12.0625 2.007812 14.113281 3.988281 15.335938 C 4.453125 15.625 5.105469 15.9375 5.105469 16.566406 L 5.105469 21.371094 C 5.105469 21.546875 5 21.703125 4.835938 21.765625 L 2.105469 22.816406 C 1.914062 22.890625 1.800781 23.089844 1.835938 23.292969 C 1.875 23.496094 2.050781 23.644531 2.253906 23.648438 L 9.335938 23.648438 C 9.542969 23.644531 9.71875 23.496094 9.753906 23.292969 C 9.792969 23.089844 9.679688 22.890625 9.488281 22.816406 L 6.753906 21.765625 C 6.59375 21.703125 6.488281 21.546875 6.488281 21.371094 L 6.488281 18.511719 C 6.488281 17.890625 6.371094 17.246094 6.503906 16.632812 C 6.652344 15.941406 7.125 15.664062 7.671875 15.296875 C 9.558594 14.03125 10.964844 12.023438 11.242188 9.738281 Z M 11.242188 9.738281 "/>
<path style=" stroke:none;fill-rule:nonzero;fill:rgb(87.058824%,87.058824%,87.058824%);fill-opacity:1;" d="M 9.488281 22.816406 L 6.753906 21.765625 C 6.59375 21.703125 6.488281 21.546875 6.488281 21.371094 L 6.488281 18.511719 C 6.488281 17.890625 6.371094 17.246094 6.503906 16.632812 C 6.652344 15.941406 7.125 15.664062 7.671875 15.296875 C 9.558594 14.03125 10.964844 12.023438 11.242188 9.738281 L 10.539062 9.738281 C 10.261719 12.023438 8.855469 14.03125 6.96875 15.296875 C 6.421875 15.664062 5.949219 15.941406 5.800781 16.632812 C 5.667969 17.246094 5.785156 17.890625 5.785156 18.511719 L 5.785156 21.371094 C 5.785156 21.546875 5.890625 21.703125 6.050781 21.765625 L 8.785156 22.816406 C 8.976562 22.890625 9.089844 23.089844 9.050781 23.292969 C 9.015625 23.496094 8.839844 23.644531 8.632812 23.648438 L 9.335938 23.648438 C 9.542969 23.644531 9.71875 23.496094 9.753906 23.292969 C 9.792969 23.089844 9.679688 22.890625 9.488281 22.816406 Z M 9.488281 22.816406 "/>
<path style=" stroke:none;fill-rule:nonzero;fill:rgb(23.137255%,24.705882%,30.196078%);fill-opacity:1;" d="M 5.890625 3.082031 C 5.722656 3.082031 5.582031 2.964844 5.546875 2.800781 C 5.503906 2.585938 5.335938 1.484375 6.128906 0.660156 C 6.449219 0.328125 6.867188 0.101562 7.316406 0.0078125 C 7.507812 -0.03125 7.695312 0.0898438 7.734375 0.277344 C 7.773438 0.46875 7.652344 0.65625 7.464844 0.695312 C 7.148438 0.757812 6.859375 0.914062 6.636719 1.144531 C 6.074219 1.734375 6.21875 2.570312 6.238281 2.664062 C 6.257812 2.765625 6.230469 2.875 6.164062 2.957031 C 6.097656 3.035156 5.996094 3.082031 5.890625 3.082031 Z M 5.890625 3.082031 "/>
<path style=" stroke:none;fill-rule:nonzero;fill:rgb(30.588235%,71.764706%,100%);fill-opacity:1;" d="M 7.140625 4.476562 C 7.082031 5.148438 6.507812 5.652344 5.835938 5.625 C 5.164062 5.59375 4.636719 5.039062 4.636719 4.367188 C 5.429688 3.949219 6.386719 3.992188 7.140625 4.476562 Z M 7.140625 4.476562 "/>
<path style=" stroke:none;fill-rule:nonzero;fill:rgb(100%,40%,40%);fill-opacity:1;" d="M 7.148438 4.003906 C 7.148438 3.300781 6.585938 2.730469 5.890625 2.730469 C 5.199219 2.730469 4.636719 3.300781 4.636719 4.003906 C 4.636719 4.703125 5.199219 5.273438 5.890625 5.273438 C 6.585938 5.273438 7.148438 4.703125 7.148438 4.003906 Z M 7.148438 4.003906 "/>
<path style=" stroke:none;fill-rule:nonzero;fill:rgb(100%,30.588235%,30.588235%);fill-opacity:1;" d="M 5.890625 2.730469 C 5.773438 2.730469 5.65625 2.75 5.539062 2.78125 C 6.078125 2.945312 6.445312 3.441406 6.445312 4.003906 C 6.445312 4.5625 6.078125 5.058594 5.539062 5.222656 C 5.65625 5.257812 5.773438 5.273438 5.890625 5.273438 C 6.589844 5.265625 7.148438 4.699219 7.148438 4.003906 C 7.148438 3.308594 6.589844 2.742188 5.890625 2.730469 Z M 5.890625 2.730469 "/>
<path style=" stroke:none;fill-rule:nonzero;fill:rgb(93.333333%,93.333333%,93.333333%);fill-opacity:1;" d="M 20.644531 23.648438 L 14.015625 23.648438 C 13.679688 23.648438 13.390625 23.414062 13.324219 23.085938 L 12.03125 16.664062 L 22.625 16.664062 L 21.332031 23.085938 C 21.269531 23.414062 20.980469 23.648438 20.644531 23.648438 Z M 20.644531 23.648438 "/>
<path style=" stroke:none;fill-rule:nonzero;fill:rgb(87.058824%,87.058824%,87.058824%);fill-opacity:1;" d="M 21.921875 16.664062 L 20.628906 23.085938 C 20.566406 23.414062 20.277344 23.648438 19.941406 23.648438 L 20.644531 23.648438 C 20.980469 23.648438 21.269531 23.414062 21.332031 23.085938 L 22.625 16.664062 Z M 21.921875 16.664062 "/>
<path style=" stroke:none;fill-rule:nonzero;fill:rgb(100%,91.372549%,40%);fill-opacity:1;" d="M 21.550781 13.171875 L 21.441406 13.171875 C 21.445312 13.121094 21.449219 13.066406 21.449219 13.015625 C 21.449219 12.035156 20.917969 11.132812 20.0625 10.660156 C 19.207031 10.183594 18.160156 10.207031 17.328125 10.726562 C 16.5 10.207031 15.453125 10.183594 14.597656 10.660156 C 13.742188 11.132812 13.210938 12.035156 13.210938 13.015625 C 13.210938 13.066406 13.214844 13.121094 13.21875 13.171875 L 13.109375 13.171875 C 11.949219 13.171875 11.011719 14.109375 11.011719 15.269531 C 11.011719 16.429688 11.949219 17.367188 13.109375 17.367188 L 21.550781 17.367188 C 22.710938 17.367188 23.648438 16.429688 23.648438 15.269531 C 23.648438 14.109375 22.710938 13.171875 21.550781 13.171875 Z M 21.550781 13.171875 "/>
<path style=" stroke:none;fill-rule:nonzero;fill:rgb(100%,88.627451%,21.176471%);fill-opacity:1;" d="M 14.613281 10.648438 C 15.304688 10.492188 16.027344 10.617188 16.625 10.988281 C 16.832031 10.863281 17.050781 10.765625 17.28125 10.695312 C 16.460938 10.210938 15.449219 10.191406 14.613281 10.648438 Z M 12.027344 13.472656 C 12.152344 13.449219 12.277344 13.4375 12.40625 13.4375 L 12.515625 13.4375 C 12.511719 13.382812 12.507812 13.332031 12.507812 13.277344 C 12.507812 13.273438 12.507812 13.265625 12.507812 13.257812 C 12.339844 13.308594 12.179688 13.378906 12.027344 13.472656 Z M 21.550781 13.171875 L 21.441406 13.171875 C 21.445312 13.121094 21.449219 13.066406 21.449219 13.015625 C 21.449219 12.0625 20.945312 11.183594 20.128906 10.695312 C 19.308594 10.210938 18.296875 10.191406 17.460938 10.648438 C 18.261719 10.46875 19.097656 10.664062 19.734375 11.175781 C 20.371094 11.6875 20.746094 12.460938 20.746094 13.277344 C 20.746094 13.332031 20.742188 13.382812 20.738281 13.4375 L 20.847656 13.4375 C 21.789062 13.4375 22.617188 14.066406 22.867188 14.972656 C 23.121094 15.882812 22.734375 16.847656 21.925781 17.332031 C 22.996094 17.136719 23.738281 16.160156 23.640625 15.082031 C 23.542969 14 22.636719 13.171875 21.550781 13.171875 Z M 21.550781 13.171875 "/>
<path style=" stroke:none;fill-rule:nonzero;fill:rgb(100%,40%,40%);fill-opacity:1;" d="M 18.585938 9.992188 C 18.585938 9.289062 18.023438 8.71875 17.328125 8.71875 C 16.636719 8.71875 16.074219 9.289062 16.074219 9.992188 C 16.074219 10.691406 16.636719 11.261719 17.328125 11.261719 C 18.023438 11.261719 18.585938 10.691406 18.585938 9.992188 Z M 18.585938 9.992188 "/>
<path style=" stroke:none;fill-rule:nonzero;fill:rgb(100%,30.588235%,30.588235%);fill-opacity:1;" d="M 17.328125 8.71875 C 17.210938 8.71875 17.09375 8.738281 16.976562 8.769531 C 17.515625 8.933594 17.882812 9.429688 17.882812 9.992188 C 17.882812 10.550781 17.515625 11.046875 16.976562 11.210938 C 17.09375 11.246094 17.210938 11.261719 17.328125 11.261719 C 18.023438 11.253906 18.585938 10.6875 18.585938 9.992188 C 18.585938 9.296875 18.023438 8.730469 17.328125 8.71875 Z M 17.328125 8.71875 "/>
<path style=" stroke:none;fill-rule:nonzero;fill:rgb(15.294118%,16.470588%,20%);fill-opacity:1;" d="M 23.28125 13.539062 C 22.882812 13.136719 22.355469 12.886719 21.792969 12.832031 C 21.699219 11.292969 20.472656 10.066406 18.9375 9.972656 C 18.929688 9.210938 18.394531 8.554688 17.648438 8.402344 C 17.632812 8.085938 17.675781 7.546875 18.074219 7.132812 C 18.296875 6.902344 18.585938 6.746094 18.902344 6.683594 C 19.089844 6.644531 19.210938 6.457031 19.171875 6.265625 C 19.132812 6.078125 18.945312 5.957031 18.753906 5.996094 C 18.300781 6.089844 17.886719 6.316406 17.566406 6.648438 C 17 7.238281 16.925781 7.96875 16.941406 8.417969 C 16.230469 8.597656 15.730469 9.238281 15.722656 9.972656 C 14.183594 10.066406 12.960938 11.292969 12.867188 12.832031 C 11.824219 12.9375 10.960938 13.691406 10.722656 14.710938 C 10.484375 15.734375 10.921875 16.792969 11.8125 17.347656 L 12.980469 23.152344 C 13.082031 23.644531 13.511719 24 14.015625 24 L 20.644531 24 C 21.144531 24 21.578125 23.644531 21.679688 23.152344 L 22.847656 17.347656 C 23.480469 16.953125 23.898438 16.289062 23.984375 15.546875 C 24.070312 14.804688 23.8125 14.066406 23.28125 13.539062 Z M 17.328125 9.070312 C 17.839844 9.058594 18.265625 9.464844 18.277344 9.976562 C 18.289062 10.488281 17.886719 10.910156 17.375 10.925781 C 16.863281 10.9375 16.4375 10.53125 16.425781 10.019531 C 16.414062 9.511719 16.816406 9.085938 17.328125 9.070312 Z M 20.988281 23.015625 C 20.957031 23.179688 20.8125 23.296875 20.644531 23.296875 L 14.015625 23.296875 C 13.847656 23.296875 13.703125 23.179688 13.671875 23.015625 L 12.59375 17.664062 C 12.761719 17.699219 12.933594 17.71875 13.109375 17.71875 L 21.550781 17.71875 C 21.722656 17.71875 21.898438 17.699219 22.066406 17.664062 Z M 22.367188 16.8125 C 22.117188 16.945312 21.835938 17.015625 21.550781 17.015625 L 13.109375 17.015625 C 12.824219 17.015625 12.542969 16.945312 12.289062 16.8125 C 12.136719 16.730469 11.996094 16.628906 11.875 16.503906 C 11.375 16.003906 11.226562 15.253906 11.496094 14.601562 C 11.765625 13.949219 12.402344 13.523438 13.109375 13.523438 L 13.21875 13.523438 C 13.3125 13.523438 13.40625 13.484375 13.472656 13.414062 C 13.539062 13.34375 13.574219 13.25 13.566406 13.152344 C 13.566406 13.109375 13.5625 13.0625 13.5625 13.015625 C 13.566406 11.734375 14.59375 10.691406 15.871094 10.671875 C 16.128906 11.246094 16.699219 11.613281 17.328125 11.613281 C 17.957031 11.613281 18.53125 11.246094 18.789062 10.671875 C 20.066406 10.691406 21.09375 11.734375 21.097656 13.015625 C 21.097656 13.0625 21.09375 13.109375 21.089844 13.152344 C 21.085938 13.25 21.121094 13.34375 21.1875 13.414062 C 21.253906 13.484375 21.347656 13.523438 21.441406 13.523438 L 21.550781 13.523438 C 22.351562 13.523438 23.050781 14.070312 23.246094 14.847656 C 23.4375 15.625 23.078125 16.4375 22.367188 16.8125 Z M 21.140625 15.03125 L 20.351562 15.714844 C 20.253906 15.796875 20.210938 15.925781 20.234375 16.046875 C 20.257812 16.171875 20.34375 16.273438 20.464844 16.3125 C 20.582031 16.355469 20.714844 16.328125 20.808594 16.246094 L 21.601562 15.5625 C 21.746094 15.4375 21.761719 15.214844 21.636719 15.066406 C 21.507812 14.921875 21.285156 14.90625 21.140625 15.03125 Z M 19.40625 13.917969 C 19.328125 13.742188 19.117188 13.664062 18.941406 13.742188 C 18.765625 13.820312 18.683594 14.03125 18.765625 14.207031 L 19.191406 15.160156 C 19.269531 15.335938 19.476562 15.417969 19.65625 15.335938 C 19.832031 15.257812 19.910156 15.050781 19.832031 14.871094 Z M 9.613281 22.488281 L 6.878906 21.4375 C 6.855469 21.425781 6.839844 21.398438 6.839844 21.371094 L 6.839844 18.511719 C 6.839844 18.304688 6.828125 18.097656 6.816406 17.898438 C 6.789062 17.476562 6.765625 17.078125 6.847656 16.707031 C 6.957031 16.195312 7.277344 15.980469 7.765625 15.65625 L 7.867188 15.589844 C 9.953125 14.1875 11.3125 12.070312 11.589844 9.78125 C 11.601562 9.679688 11.570312 9.582031 11.503906 9.503906 C 11.4375 9.429688 11.339844 9.386719 11.242188 9.386719 L 10.941406 9.386719 C 10.898438 8.058594 9.953125 6.933594 8.652344 6.660156 C 8.652344 6.644531 8.65625 6.632812 8.65625 6.621094 C 8.660156 5.695312 8.21875 4.824219 7.476562 4.28125 C 7.492188 4.1875 7.5 4.097656 7.5 4.003906 C 7.5 3.234375 6.960938 2.570312 6.210938 2.414062 C 6.195312 2.097656 6.238281 1.558594 6.636719 1.144531 C 6.859375 0.914062 7.148438 0.757812 7.464844 0.695312 C 7.652344 0.65625 7.773438 0.46875 7.734375 0.277344 C 7.695312 0.0898438 7.507812 -0.03125 7.316406 0.0078125 C 6.867188 0.101562 6.449219 0.328125 6.128906 0.660156 C 5.5625 1.25 5.488281 1.980469 5.507812 2.429688 C 4.785156 2.613281 4.285156 3.261719 4.285156 4.003906 C 4.285156 4.054688 4.289062 4.109375 4.292969 4.160156 C 3.535156 4.632812 3.039062 5.433594 2.953125 6.324219 C 1.609375 6.601562 0.644531 7.785156 0.648438 9.15625 C 0.648438 9.234375 0.652344 9.3125 0.660156 9.386719 L 0.382812 9.386719 C 0.285156 9.378906 0.1875 9.414062 0.117188 9.480469 C 0.0429688 9.546875 0 9.640625 0 9.738281 C 0 9.753906 0 9.765625 0.00390625 9.78125 C 0.152344 10.980469 0.574219 12.132812 1.238281 13.140625 C 1.902344 14.148438 2.777344 15 3.804688 15.636719 C 3.855469 15.667969 3.910156 15.703125 3.96875 15.734375 C 4.429688 16.011719 4.753906 16.230469 4.753906 16.566406 L 4.753906 21.371094 C 4.753906 21.398438 4.738281 21.425781 4.710938 21.4375 L 1.976562 22.488281 C 1.628906 22.625 1.421875 22.988281 1.492188 23.359375 C 1.558594 23.726562 1.878906 23.996094 2.253906 24 L 9.335938 24 C 9.710938 23.996094 10.035156 23.726562 10.101562 23.359375 C 10.167969 22.988281 9.964844 22.625 9.613281 22.488281 Z M 10.238281 9.386719 L 5.933594 9.386719 C 5.984375 8.230469 6.929688 7.304688 8.085938 7.304688 C 9.238281 7.304688 10.183594 8.230469 10.238281 9.386719 Z M 5.890625 3.082031 C 6.265625 3.078125 6.605469 3.296875 6.753906 3.640625 C 6.898438 3.984375 6.824219 4.382812 6.5625 4.648438 C 6.300781 4.914062 5.90625 4.996094 5.558594 4.851562 C 5.214844 4.710938 4.988281 4.375 4.988281 4.003906 C 4.984375 3.5 5.390625 3.089844 5.890625 3.082031 Z M 4.523438 4.851562 C 4.804688 5.3125 5.292969 5.601562 5.832031 5.625 C 6.367188 5.644531 6.878906 5.394531 7.191406 4.953125 C 7.671875 5.367188 7.949219 5.96875 7.949219 6.605469 C 7.164062 6.644531 6.429688 7.007812 5.917969 7.609375 C 5.425781 6.828125 4.589844 6.332031 3.667969 6.273438 C 3.753906 5.703125 4.0625 5.195312 4.523438 4.851562 Z M 3.507812 6.972656 C 4.371094 6.976562 5.148438 7.496094 5.484375 8.289062 C 5.328125 8.636719 5.242188 9.007812 5.230469 9.386719 L 1.363281 9.386719 C 1.355469 9.3125 1.351562 9.234375 1.351562 9.15625 C 1.351562 7.953125 2.320312 6.972656 3.507812 6.972656 Z M 9.335938 23.296875 L 2.253906 23.296875 C 2.214844 23.296875 2.179688 23.261719 2.183594 23.21875 C 2.179688 23.183594 2.199219 23.15625 2.230469 23.144531 L 4.964844 22.09375 C 5.261719 21.976562 5.457031 21.691406 5.457031 21.371094 L 5.457031 16.566406 C 5.457031 15.804688 4.804688 15.417969 4.328125 15.132812 C 4.277344 15.101562 4.222656 15.070312 4.171875 15.039062 C 3.234375 14.457031 2.433594 13.679688 1.828125 12.757812 C 1.296875 11.949219 0.933594 11.042969 0.761719 10.089844 L 1.066406 10.089844 C 1.066406 10.089844 1.066406 10.089844 1.070312 10.089844 C 3.0625 10.089844 8.652344 10.089844 10.578125 10.089844 C 10.578125 10.089844 10.578125 10.089844 10.582031 10.089844 L 10.832031 10.089844 C 10.476562 12.023438 9.273438 13.800781 7.472656 15.007812 L 7.375 15.074219 C 6.863281 15.414062 6.328125 15.769531 6.160156 16.558594 C 6.058594 17.023438 6.085938 17.488281 6.113281 17.9375 C 6.125 18.136719 6.136719 18.328125 6.136719 18.511719 L 6.136719 21.371094 C 6.136719 21.691406 6.332031 21.976562 6.628906 22.09375 L 9.363281 23.144531 C 9.390625 23.15625 9.410156 23.183594 9.410156 23.21875 C 9.410156 23.261719 9.378906 23.296875 9.335938 23.296875 Z M 20.230469 18.910156 C 20.039062 18.859375 19.847656 18.972656 19.800781 19.164062 L 19.097656 21.929688 C 19.066406 22.050781 19.105469 22.179688 19.195312 22.265625 C 19.285156 22.355469 19.414062 22.386719 19.535156 22.351562 C 19.65625 22.320312 19.75 22.222656 19.78125 22.101562 L 20.484375 19.335938 C 20.53125 19.148438 20.417969 18.957031 20.230469 18.910156 Z M 17.070312 15.519531 L 16.273438 14.839844 C 16.128906 14.714844 15.90625 14.730469 15.78125 14.878906 C 15.652344 15.027344 15.671875 15.246094 15.820312 15.375 L 16.613281 16.050781 C 16.757812 16.179688 16.980469 16.160156 17.105469 16.011719 C 17.234375 15.867188 17.214844 15.644531 17.070312 15.519531 Z M 14.035156 14.566406 C 13.878906 14.453125 13.65625 14.488281 13.542969 14.644531 L 12.933594 15.492188 C 12.820312 15.652344 12.855469 15.871094 13.011719 15.984375 C 13.171875 16.097656 13.390625 16.0625 13.503906 15.902344 L 14.113281 15.054688 C 14.226562 14.898438 14.191406 14.679688 14.035156 14.566406 Z M 19.414062 12.136719 C 19.351562 11.953125 19.152344 11.851562 18.96875 11.914062 L 17.976562 12.246094 C 17.792969 12.308594 17.695312 12.507812 17.757812 12.691406 C 17.816406 12.875 18.019531 12.976562 18.203125 12.914062 L 19.191406 12.582031 C 19.375 12.519531 19.476562 12.320312 19.414062 12.136719 Z M 15.984375 13.25 C 16.160156 13.25 16.304688 13.121094 16.332031 12.949219 C 16.359375 12.777344 16.253906 12.613281 16.089844 12.5625 L 15.09375 12.25 C 14.972656 12.214844 14.839844 12.242188 14.75 12.328125 C 14.65625 12.414062 14.617188 12.542969 14.644531 12.664062 C 14.671875 12.785156 14.761719 12.886719 14.882812 12.921875 L 15.878906 13.230469 C 15.914062 13.242188 15.949219 13.25 15.984375 13.25 Z M 17.328125 18.898438 C 17.136719 18.898438 16.976562 19.054688 16.976562 19.25 L 16.976562 22.015625 C 16.976562 22.207031 17.136719 22.367188 17.328125 22.367188 C 17.523438 22.367188 17.679688 22.207031 17.679688 22.015625 L 17.679688 19.25 C 17.679688 19.054688 17.523438 18.898438 17.328125 18.898438 Z M 14.859375 19.164062 C 14.828125 19.039062 14.734375 18.945312 14.613281 18.910156 C 14.492188 18.875 14.363281 18.910156 14.273438 18.996094 C 14.183594 19.085938 14.144531 19.214844 14.175781 19.335938 L 14.878906 22.101562 C 14.910156 22.222656 15.003906 22.320312 15.125 22.351562 C 15.246094 22.386719 15.375 22.355469 15.464844 22.265625 C 15.554688 22.179688 15.59375 22.050781 15.5625 21.929688 Z M 14.859375 19.164062 "/>
</g>
</svg>
