<?xml version="1.0" encoding="UTF-8"?>
<svg xmlns="http://www.w3.org/2000/svg" xmlns:xlink="http://www.w3.org/1999/xlink" width="24px" height="24px" viewBox="0 0 24 24" version="1.1">
<g id="surface1">
<path style="fill-rule:nonzero;fill:rgb(44.705882%,44.705882%,44.313725%);fill-opacity:1;stroke-width:1;stroke-linecap:round;stroke-linejoin:round;stroke:rgb(34.509804%,34.901961%,35.686275%);stroke-opacity:1;stroke-miterlimit:10;" d="M 32.989583 48 C 32.541667 46.71875 32.395833 45.34375 32.65625 44.020833 C 33.770833 38.375 33.375 38.072917 33.375 38.072917 L 33.28125 26.875 C 33.8125 23.104167 31.895833 20.791667 31.895833 20.791667 C 26.552083 14.395833 26.75 11.197917 26.75 11.197917 L 26.71875 8.739583 L 27.3125 8.739583 L 27.3125 4.5 L 19.71875 4.5 L 19.71875 8.739583 L 20.3125 8.739583 L 20.28125 11.197917 C 20.28125 11.197917 20.479167 14.395833 15.135417 20.791667 C 15.135417 20.791667 13.21875 23.104167 13.75 26.875 L 13.65625 38.072917 C 13.65625 38.072917 13.260417 38.375 14.375 44.020833 C 14.645833 45.34375 14.5 46.71875 14.041667 48 C 13.5625 49.354167 13.1875 51.604167 13.885417 54.833333 C 15.135417 60.65625 19.427083 59.385417 19.427083 59.385417 L 27.604167 59.385417 C 27.604167 59.385417 31.895833 60.65625 33.15625 54.833333 C 33.84375 51.604167 33.46875 49.354167 32.989583 48 Z M 32.989583 48 " transform="matrix(0.375,0,0,0.375,0,0)"/>
<path style="fill-rule:nonzero;fill:rgb(97.647059%,31.372549%,26.27451%);fill-opacity:1;stroke-width:1;stroke-linecap:round;stroke-linejoin:round;stroke:rgb(34.509804%,34.901961%,35.686275%);stroke-opacity:1;stroke-miterlimit:10;" d="M 19.71875 4.5 L 27.3125 4.5 L 27.3125 8.739583 L 19.71875 8.739583 Z M 19.71875 4.5 " transform="matrix(0.375,0,0,0.375,0,0)"/>
<path style="fill-rule:nonzero;fill:rgb(97.647059%,31.372549%,26.27451%);fill-opacity:1;stroke-width:1;stroke-linecap:round;stroke-linejoin:miter;stroke:rgb(34.509804%,34.901961%,35.686275%);stroke-opacity:1;stroke-miterlimit:10;" d="M 33.375 38.072917 L 33.291667 27.1875 L 13.75 27.1875 L 13.65625 38.072917 C 13.65625 38.072917 13.541667 38.166667 13.614583 39.166667 L 33.416667 39.166667 C 33.489583 38.166667 33.375 38.072917 33.375 38.072917 Z M 33.375 38.072917 " transform="matrix(0.375,0,0,0.375,0,0)"/>
<path style="fill-rule:nonzero;fill:rgb(100%,67.45098%,15.294118%);fill-opacity:1;stroke-width:1;stroke-linecap:round;stroke-linejoin:round;stroke:rgb(34.509804%,34.901961%,35.686275%);stroke-opacity:1;stroke-miterlimit:10;" d="M 40.71875 16.447917 L 38.1875 16.447917 C 37.947917 16.447917 37.75 16.635417 37.739583 16.875 L 37.65625 20.6875 C 37.177083 21.46875 37.65625 21.989583 37.65625 21.989583 C 37.65625 21.989583 38.197917 22.333333 37.177083 24.96875 C 36.15625 27.604167 36.916667 30.479167 36.916667 30.479167 C 36.916667 30.479167 36.791667 31.71875 35.677083 32.375 C 34.552083 33.020833 31.166667 34.791667 30.979167 38.71875 C 30.8125 42.104167 31.333333 54.9375 31.479167 58.4375 C 31.5 58.9375 31.927083 59.322917 32.4375 59.322917 L 49 59.322917 C 49.520833 59.322917 49.9375 58.9375 49.958333 58.4375 C 50.114583 54.9375 50.635417 42.104167 50.46875 38.71875 C 50.28125 34.791667 46.885417 33.020833 45.770833 32.375 C 44.65625 31.71875 44.520833 30.479167 44.520833 30.479167 C 44.520833 30.479167 45.291667 27.604167 44.270833 24.96875 C 43.25 22.333333 43.791667 21.989583 43.791667 21.989583 C 43.791667 21.989583 44.270833 21.46875 43.791667 20.6875 L 43.708333 16.875 C 43.697917 16.635417 43.5 16.447917 43.260417 16.447917 Z M 40.71875 16.447917 " transform="matrix(0.375,0,0,0.375,0,0)"/>
<path style="fill-rule:nonzero;fill:rgb(100%,98.431373%,97.254902%);fill-opacity:1;stroke-width:1;stroke-linecap:round;stroke-linejoin:round;stroke:rgb(34.509804%,34.901961%,35.686275%);stroke-opacity:1;stroke-miterlimit:10;" d="M 47.333333 51.729167 C 47.4375 48.9375 47.5625 45.28125 47.572917 42.958333 C 45.489583 43.03125 42.989583 43.072917 40.302083 43.072917 C 37.96875 43.072917 35.770833 43.041667 33.875 42.979167 C 33.885417 45.3125 34.010417 48.958333 34.114583 51.75 C 36.135417 51.6875 38.489583 51.645833 41.020833 51.645833 C 43.302083 51.645833 45.447917 51.677083 47.333333 51.729167 Z M 43.708333 16.875 C 43.697917 16.635417 43.5 16.447917 43.260417 16.447917 L 38.1875 16.447917 C 37.947917 16.447917 37.75 16.635417 37.739583 16.875 L 37.677083 19.885417 L 43.770833 19.885417 Z M 44.270833 24.96875 C 43.25 22.333333 43.791667 21.989583 43.791667 21.989583 C 43.791667 21.989583 44.270833 21.46875 43.791667 20.6875 L 43.770833 19.885417 L 37.677083 19.885417 L 37.65625 20.6875 C 37.177083 21.46875 37.65625 21.989583 37.65625 21.989583 C 37.65625 21.989583 38.197917 22.333333 37.177083 24.96875 C 36.15625 27.604167 36.916667 30.479167 36.916667 30.479167 L 44.520833 30.479167 C 44.520833 30.479167 45.291667 27.604167 44.270833 24.96875 Z M 44.270833 24.96875 " transform="matrix(0.375,0,0,0.375,0,0)"/>
</g>
</svg>
