<?xml version="1.0" encoding="UTF-8"?>
<svg xmlns="http://www.w3.org/2000/svg" xmlns:xlink="http://www.w3.org/1999/xlink" width="24px" height="24px" viewBox="0 0 24 24" version="1.1">
<g id="surface1">
<path style=" stroke:none;fill-rule:nonzero;fill:rgb(83.529412%,89.803922%,94.509804%);fill-opacity:1;" d="M 13.996094 5.851562 L 20.882812 5.851562 C 21.257812 5.851562 21.566406 6.15625 21.566406 6.535156 C 21.566406 8.074219 21.375 9.609375 21.003906 11.101562 C 20.628906 12.597656 20.441406 14.132812 20.441406 15.671875 L 20.441406 20.101562 C 20.441406 20.515625 20.105469 20.851562 19.691406 20.851562 L 15.191406 20.851562 C 14.777344 20.851562 14.441406 20.515625 14.441406 20.101562 L 14.441406 15.671875 C 14.441406 14.132812 14.25 12.597656 13.878906 11.101562 C 13.503906 9.609375 13.316406 8.074219 13.316406 6.535156 C 13.3125 6.351562 13.386719 6.179688 13.511719 6.050781 C 13.640625 5.925781 13.8125 5.851562 13.996094 5.851562 Z M 13.996094 5.851562 "/>
<path style=" stroke:none;fill-rule:nonzero;fill:rgb(69.019608%,76.862745%,85.490196%);fill-opacity:1;" d="M 17.113281 12.609375 C 17.140625 12.589844 17.167969 12.582031 17.199219 12.566406 C 16.4375 12.390625 15.644531 12.519531 14.980469 12.925781 C 14.949219 12.941406 14.914062 12.953125 14.882812 12.96875 C 15.644531 13.144531 16.445312 13.015625 17.113281 12.609375 Z M 17.113281 12.609375 "/>
<path style=" stroke:none;fill-rule:nonzero;fill:rgb(56.470588%,81.176471%,94.509804%);fill-opacity:1;" d="M 17.8125 16.726562 C 17.632812 16.726562 17.476562 16.597656 17.445312 16.417969 L 15.238281 3.921875 L 11.742188 3.222656 C 11.539062 3.179688 11.40625 2.984375 11.445312 2.78125 C 11.464844 2.683594 11.523438 2.597656 11.605469 2.539062 C 11.6875 2.484375 11.789062 2.464844 11.886719 2.484375 L 15.636719 3.234375 C 15.789062 3.265625 15.90625 3.386719 15.933594 3.539062 L 18.183594 16.289062 C 18.203125 16.398438 18.171875 16.507812 18.101562 16.59375 C 18.027344 16.679688 17.925781 16.726562 17.8125 16.726562 Z M 17.8125 16.726562 "/>
<path style=" stroke:none;fill-rule:nonzero;fill:rgb(44.705882%,71.764706%,89.803922%);fill-opacity:1;" d="M 17.445312 16.417969 C 17.460938 16.515625 17.515625 16.601562 17.597656 16.660156 C 17.679688 16.71875 17.78125 16.738281 17.878906 16.722656 C 17.976562 16.703125 18.0625 16.648438 18.121094 16.566406 C 18.179688 16.488281 18.199219 16.386719 18.183594 16.289062 L 16.339844 5.851562 L 15.582031 5.851562 Z M 17.445312 16.417969 "/>
<path style=" stroke:none;fill-rule:nonzero;fill:rgb(69.019608%,76.862745%,85.490196%);fill-opacity:1;" d="M 20.882812 5.851562 L 19.382812 5.851562 C 19.757812 5.851562 20.0625 6.15625 20.0625 6.535156 C 20.0625 8.074219 19.875 9.609375 19.5 11.101562 C 19.128906 12.597656 18.9375 14.132812 18.9375 15.671875 L 18.9375 20.101562 C 18.9375 20.515625 18.601562 20.851562 18.1875 20.851562 L 19.6875 20.851562 C 20.101562 20.851562 20.4375 20.515625 20.4375 20.101562 L 20.4375 15.671875 C 20.4375 14.132812 20.628906 12.597656 21 11.101562 C 21.375 9.609375 21.5625 8.074219 21.5625 6.535156 C 21.5625 6.15625 21.257812 5.851562 20.882812 5.851562 Z M 20.882812 5.851562 "/>
<path style=" stroke:none;fill-rule:nonzero;fill:rgb(29.803922%,42.745098%,52.54902%);fill-opacity:1;" d="M 20.125 12.546875 C 19.179688 12.027344 18.03125 12.050781 17.113281 12.609375 C 16.414062 13.03125 15.613281 13.136719 14.875 12.96875 C 15.050781 13.882812 15.144531 14.808594 15.144531 15.734375 L 15.144531 20.101562 L 19.761719 20.101562 L 19.761719 15.734375 C 19.761719 14.664062 19.886719 13.59375 20.125 12.550781 Z M 20.125 12.546875 "/>
<path style=" stroke:none;fill-rule:nonzero;fill:rgb(25.490196%,40%,49.019608%);fill-opacity:1;" d="M 19.253906 12.234375 C 19.046875 13.371094 18.9375 14.519531 18.9375 15.671875 L 18.9375 20.105469 L 19.761719 20.105469 L 19.761719 15.738281 C 19.761719 14.664062 19.886719 13.597656 20.125 12.550781 L 20.125 12.546875 C 19.851562 12.398438 19.558594 12.292969 19.253906 12.234375 Z M 19.253906 12.234375 "/>
<path style=" stroke:none;fill-rule:nonzero;fill:rgb(38.039216%,49.411765%,58.431373%);fill-opacity:1;" d="M 16.515625 20.089844 L 17.496094 20.089844 C 17.703125 20.089844 17.871094 19.921875 17.871094 19.714844 L 17.871094 18.734375 C 17.871094 18.527344 17.703125 18.359375 17.496094 18.359375 L 16.515625 18.359375 C 16.308594 18.359375 16.140625 18.527344 16.140625 18.734375 L 16.140625 19.714844 C 16.140625 19.921875 16.308594 20.089844 16.515625 20.089844 Z M 16.515625 20.089844 "/>
<path style=" stroke:none;fill-rule:nonzero;fill:rgb(38.039216%,49.411765%,58.431373%);fill-opacity:1;" d="M 18.804688 18.984375 L 19.65625 18.132812 C 19.800781 17.984375 19.800781 17.75 19.65625 17.601562 L 18.804688 16.75 C 18.65625 16.601562 18.421875 16.601562 18.273438 16.75 L 17.421875 17.601562 C 17.273438 17.75 17.273438 17.984375 17.421875 18.132812 L 18.273438 18.984375 C 18.421875 19.128906 18.65625 19.128906 18.804688 18.984375 Z M 18.804688 18.984375 "/>
<path style=" stroke:none;fill-rule:nonzero;fill:rgb(29.803922%,42.745098%,52.54902%);fill-opacity:1;" d="M 18.9375 18.847656 L 19.65625 18.132812 C 19.722656 18.066406 19.761719 17.976562 19.761719 17.882812 L 19.761719 17.851562 C 19.761719 17.757812 19.722656 17.667969 19.65625 17.601562 L 18.9375 16.882812 Z M 18.9375 18.847656 "/>
<path style=" stroke:none;fill-rule:nonzero;fill:rgb(95.686275%,45.490196%,13.72549%);fill-opacity:1;" d="M 14.339844 19.476562 C 14.40625 19.675781 14.386719 19.890625 14.289062 20.074219 C 14.1875 20.257812 14.015625 20.390625 13.816406 20.441406 C 9.511719 21.601562 4.921875 20.277344 1.890625 17.007812 C 1.75 16.855469 1.675781 16.652344 1.6875 16.445312 C 1.699219 16.238281 1.796875 16.042969 1.960938 15.910156 L 1.972656 15.902344 C 2.28125 15.648438 2.726562 15.699219 2.996094 15.992188 C 5.648438 18.847656 9.65625 20.003906 13.417969 18.992188 C 13.804688 18.890625 14.207031 19.085938 14.335938 19.460938 Z M 14.339844 19.476562 "/>
<path style=" stroke:none;fill-rule:nonzero;fill:rgb(92.941176%,36.470588%,14.509804%);fill-opacity:1;" d="M 14.339844 19.476562 L 14.335938 19.460938 C 14.207031 19.085938 13.804688 18.890625 13.417969 18.992188 C 13.160156 19.0625 12.898438 19.121094 12.632812 19.171875 C 12.722656 19.25 12.796875 19.34375 12.835938 19.460938 L 12.839844 19.476562 C 12.90625 19.675781 12.886719 19.890625 12.789062 20.074219 C 12.6875 20.257812 12.515625 20.390625 12.316406 20.441406 C 11.546875 20.648438 10.761719 20.777344 9.96875 20.828125 C 11.265625 20.90625 12.5625 20.777344 13.816406 20.441406 C 14.015625 20.390625 14.1875 20.257812 14.289062 20.074219 C 14.386719 19.890625 14.40625 19.675781 14.339844 19.476562 Z M 6.289062 18.945312 C 7.480469 19.285156 8.710938 19.410156 9.929688 19.324219 C 7.28125 19.128906 4.804688 17.941406 2.996094 15.992188 C 2.726562 15.699219 2.28125 15.652344 1.972656 15.902344 L 1.960938 15.914062 C 1.855469 16 1.78125 16.113281 1.742188 16.238281 C 3.003906 17.515625 4.570312 18.445312 6.289062 18.945312 Z M 6.289062 18.945312 "/>
<path style=" stroke:none;fill-rule:nonzero;fill:rgb(100%,80%,36.078431%);fill-opacity:1;" d="M 10.695312 8.851562 L 3.136719 16.136719 C 5.738281 18.839844 9.585938 19.949219 13.226562 19.042969 Z M 10.695312 8.851562 "/>
<path style=" stroke:none;fill-rule:nonzero;fill:rgb(96.862745%,70.980392%,27.45098%);fill-opacity:1;" d="M 10.695312 8.851562 L 9.636719 9.875 L 11.105469 15.800781 C 11.460938 17.238281 10.359375 18.644531 8.878906 18.597656 C 8.003906 18.570312 7.132812 18.4375 6.289062 18.195312 C 5.933594 18.089844 5.585938 17.964844 5.242188 17.824219 C 7.636719 19.28125 10.507812 19.71875 13.226562 19.042969 Z M 10.695312 8.851562 "/>
<path style=" stroke:none;fill-rule:nonzero;fill:rgb(94.117647%,29.803922%,30.196078%);fill-opacity:1;" d="M 6.816406 15.160156 C 7.214844 15.273438 7.441406 15.691406 7.328125 16.085938 C 7.214844 16.484375 6.796875 16.714844 6.398438 16.601562 C 6.003906 16.488281 5.773438 16.070312 5.886719 15.671875 C 6 15.273438 6.417969 15.046875 6.816406 15.160156 Z M 6.816406 15.160156 "/>
<path style=" stroke:none;fill-rule:nonzero;fill:rgb(94.117647%,29.803922%,30.196078%);fill-opacity:1;" d="M 10.625 15.476562 C 11.023438 15.59375 11.253906 16.007812 11.140625 16.40625 C 11.023438 16.804688 10.609375 17.035156 10.210938 16.917969 C 9.8125 16.804688 9.582031 16.390625 9.699219 15.992188 C 9.8125 15.59375 10.226562 15.363281 10.625 15.476562 Z M 10.625 15.476562 "/>
<path style=" stroke:none;fill-rule:nonzero;fill:rgb(94.117647%,29.803922%,30.196078%);fill-opacity:1;" d="M 9.550781 12.4375 C 9.949219 12.550781 10.179688 12.964844 10.0625 13.363281 C 9.949219 13.761719 9.535156 13.992188 9.136719 13.878906 C 8.738281 13.761719 8.507812 13.347656 8.621094 12.949219 C 8.738281 12.550781 9.152344 12.320312 9.550781 12.4375 Z M 9.550781 12.4375 "/>
<path style=" stroke:none;fill-rule:nonzero;fill:rgb(94.117647%,29.803922%,30.196078%);fill-opacity:1;" d="M 9.550781 12.4375 C 9.949219 12.550781 10.179688 12.964844 10.0625 13.363281 C 9.949219 13.761719 9.535156 13.992188 9.136719 13.878906 C 8.738281 13.761719 8.507812 13.347656 8.621094 12.949219 C 8.738281 12.550781 9.152344 12.320312 9.550781 12.4375 Z M 9.550781 12.4375 "/>
<path style=" stroke:none;fill-rule:nonzero;fill:rgb(88.235294%,20%,25.098039%);fill-opacity:1;" d="M 6.816406 15.160156 C 6.761719 15.144531 6.710938 15.148438 6.65625 15.144531 C 6.910156 15.328125 7.035156 15.644531 6.945312 15.957031 C 6.847656 16.292969 6.523438 16.511719 6.175781 16.484375 C 6.242188 16.53125 6.316406 16.574219 6.402344 16.601562 C 6.660156 16.683594 6.945312 16.617188 7.144531 16.429688 C 7.339844 16.242188 7.421875 15.960938 7.355469 15.699219 C 7.285156 15.433594 7.078125 15.226562 6.816406 15.160156 Z M 9.550781 12.433594 C 9.496094 12.421875 9.445312 12.425781 9.394531 12.421875 C 9.644531 12.601562 9.769531 12.921875 9.679688 13.234375 C 9.582031 13.570312 9.257812 13.789062 8.910156 13.757812 C 8.976562 13.808594 9.050781 13.851562 9.136719 13.875 C 9.394531 13.957031 9.679688 13.894531 9.878906 13.707031 C 10.078125 13.519531 10.15625 13.238281 10.089844 12.972656 C 10.019531 12.710938 9.816406 12.503906 9.550781 12.433594 Z M 10.625 15.476562 C 10.574219 15.460938 10.523438 15.464844 10.46875 15.464844 C 10.71875 15.644531 10.847656 15.960938 10.757812 16.273438 C 10.65625 16.609375 10.335938 16.828125 9.984375 16.800781 C 10.054688 16.847656 10.125 16.894531 10.210938 16.917969 C 10.472656 17 10.753906 16.933594 10.953125 16.746094 C 11.152344 16.558594 11.234375 16.28125 11.164062 16.015625 C 11.097656 15.75 10.890625 15.542969 10.625 15.476562 Z M 10.625 15.476562 "/>
</g>
</svg>
