<?xml version="1.0" encoding="UTF-8"?>
<svg xmlns="http://www.w3.org/2000/svg" xmlns:xlink="http://www.w3.org/1999/xlink" width="24px" height="24px" viewBox="0 0 24 24" version="1.1">
<g id="surface1">
<path style="fill:none;stroke-width:2;stroke-linecap:round;stroke-linejoin:round;stroke:rgb(26.666667%,30.980392%,34.509804%);stroke-opacity:1;stroke-miterlimit:2;" d="M 35.989583 27 L 8.364583 27 C 8.364583 27 10.479167 45.770833 11.177083 52.010417 C 11.3125 53.145833 12.270833 54 13.40625 54 C 17.510417 54 26.833333 54 30.9375 54 C 32.072917 54 33.03125 53.145833 33.166667 52.010417 C 33.864583 45.770833 35.989583 27 35.989583 27 Z M 35.989583 27 " transform="matrix(0.375,0,0,0.375,0,0)"/>
<path style="fill:none;stroke-width:2;stroke-linecap:round;stroke-linejoin:round;stroke:rgb(26.666667%,30.980392%,34.509804%);stroke-opacity:1;stroke-miterlimit:2;" d="M 38.34375 23.270833 C 38.34375 22.666667 38.104167 22.104167 37.6875 21.677083 C 37.270833 21.260417 36.697917 21.020833 36.104167 21.020833 C 30.177083 21.020833 14.166667 21.020833 8.239583 21.020833 C 7.645833 21.020833 7.072917 21.260417 6.65625 21.677083 C 6.239583 22.104167 6 22.666667 6 23.270833 C 6 23.75 6 24.270833 6 24.760417 C 6 25.354167 6.239583 25.927083 6.65625 26.34375 C 7.072917 26.760417 7.645833 27 8.239583 27 C 14.166667 27 30.177083 27 36.104167 27 C 36.697917 27 37.270833 26.760417 37.6875 26.34375 C 38.104167 25.927083 38.34375 25.354167 38.34375 24.760417 C 38.34375 24.270833 38.34375 23.75 38.34375 23.270833 Z M 38.34375 23.270833 " transform="matrix(0.375,0,0,0.375,0,0)"/>
<path style="fill:none;stroke-width:2;stroke-linecap:round;stroke-linejoin:round;stroke:rgb(26.666667%,30.980392%,34.509804%);stroke-opacity:1;stroke-miterlimit:2;" d="M 33.270833 21.020833 L 11.072917 21.020833 L 11.072917 19.260417 C 11.072917 18.020833 12.072917 17.020833 13.3125 17.020833 C 17.572917 17.020833 26.770833 17.020833 31.03125 17.020833 C 32.270833 17.020833 33.270833 18.020833 33.270833 19.260417 C 33.270833 20.177083 33.270833 21.020833 33.270833 21.020833 Z M 33.270833 21.020833 " transform="matrix(0.375,0,0,0.375,0,0)"/>
<path style="fill:none;stroke-width:2;stroke-linecap:round;stroke-linejoin:round;stroke:rgb(26.666667%,30.980392%,34.509804%);stroke-opacity:1;stroke-miterlimit:2;" d="M 21.21875 35.020833 C 21.6875 37.864583 22.270833 38.510417 20.96875 42.322917 C 20.375 44.052083 20.583333 45.697917 21.072917 47.052083 L 20.96875 47.0625 C 18.739583 47.0625 16.9375 44.354167 16.9375 41.020833 C 16.9375 37.6875 18.739583 34.979167 20.96875 34.979167 Z M 21.21875 35.020833 " transform="matrix(0.375,0,0,0.375,0,0)"/>
<path style="fill:none;stroke-width:2;stroke-linecap:round;stroke-linejoin:round;stroke:rgb(26.666667%,30.980392%,34.509804%);stroke-opacity:1;stroke-miterlimit:2;" d="M 23.635417 34.979167 C 25.739583 35.145833 27.40625 37.770833 27.40625 40.989583 C 27.40625 44.270833 25.65625 46.947917 23.479167 47.010417 C 23 45.65625 22.791667 44.020833 23.375 42.28125 C 24.677083 38.46875 24.104167 37.822917 23.635417 34.979167 Z M 23.635417 34.979167 " transform="matrix(0.375,0,0,0.375,0,0)"/>
<path style="fill:none;stroke-width:2;stroke-linecap:round;stroke-linejoin:round;stroke:rgb(26.666667%,30.980392%,34.509804%);stroke-opacity:1;stroke-miterlimit:2;" d="M 37.666667 52 C 37.666667 52 47.052083 52.927083 52.645833 53.479167 C 55.177083 53.729167 57.447917 51.90625 57.760417 49.375 C 58.46875 43.458333 57.104167 33.635417 40.697917 32.010417 C 38.802083 31.822917 37.072917 31.78125 35.5 31.864583 " transform="matrix(0.375,0,0,0.375,0,0)"/>
<path style="fill:none;stroke-width:2;stroke-linecap:round;stroke-linejoin:round;stroke:rgb(26.666667%,30.980392%,34.509804%);stroke-opacity:1;stroke-miterlimit:2;" d="M 47.052083 33.708333 C 47.708333 34.927083 48.833333 37.770833 48.8125 42.958333 " transform="matrix(0.375,0,0,0.375,0,0)"/>
<path style="fill:none;stroke-width:2;stroke-linecap:round;stroke-linejoin:round;stroke:rgb(26.666667%,30.980392%,34.509804%);stroke-opacity:1;stroke-miterlimit:2;" d="M 38.666667 32.208333 C 38.666667 32.208333 40.916667 34.875 40.885417 42.177083 " transform="matrix(0.375,0,0,0.375,0,0)"/>
<path style="fill:none;stroke-width:2;stroke-linecap:round;stroke-linejoin:round;stroke:rgb(26.666667%,30.980392%,34.509804%);stroke-opacity:1;stroke-miterlimit:2;" d="M 22 17.020833 L 23 10 L 31 11 " transform="matrix(0.375,0,0,0.375,0,0)"/>
</g>
</svg>
