<?xml version="1.0" encoding="UTF-8"?>
<svg xmlns="http://www.w3.org/2000/svg" xmlns:xlink="http://www.w3.org/1999/xlink" width="24px" height="24px" viewBox="0 0 24 24" version="1.1">
<g id="surface1">
<path style="fill:none;stroke-width:12;stroke-linecap:round;stroke-linejoin:round;stroke:rgb(21.568627%,20.392157%,19.215686%);stroke-opacity:1;stroke-miterlimit:10;" d="M 302.686686 230.332682 L 364.654948 230.332682 L 364.654948 602.373047 L 302.686686 602.373047 Z M 302.686686 230.332682 " transform="matrix(0.0338505,0,0,0.0338505,0,0)"/>
<path style="fill:none;stroke-width:12;stroke-linecap:round;stroke-linejoin:round;stroke:rgb(21.568627%,20.392157%,19.215686%);stroke-opacity:1;stroke-miterlimit:10;" d="M 106.280762 188.905111 L 561.060872 188.905111 L 561.060872 230.332682 L 106.280762 230.332682 Z M 106.280762 188.905111 " transform="matrix(0.0338505,0,0,0.0338505,0,0)"/>
<path style="fill:none;stroke-width:12;stroke-linecap:round;stroke-linejoin:round;stroke:rgb(21.568627%,20.392157%,19.215686%);stroke-opacity:1;stroke-miterlimit:10;" d="M 302.686686 467.935384 L 168.364421 602.373047 L 209.676595 602.373047 L 302.686686 509.362956 Z M 302.686686 467.935384 " transform="matrix(0.0338505,0,0,0.0338505,0,0)"/>
<path style="fill:none;stroke-width:12;stroke-linecap:round;stroke-linejoin:round;stroke:rgb(21.568627%,20.392157%,19.215686%);stroke-opacity:1;stroke-miterlimit:10;" d="M 302.686686 343.998861 L 126.936849 519.633301 L 126.936849 561.060872 L 302.686686 385.311035 Z M 302.686686 343.998861 " transform="matrix(0.0338505,0,0,0.0338505,0,0)"/>
<path style="fill:none;stroke-width:12;stroke-linecap:round;stroke-linejoin:round;stroke:rgb(21.568627%,20.392157%,19.215686%);stroke-opacity:1;stroke-miterlimit:10;" d="M 364.654948 323.342773 L 457.665039 230.332682 L 416.352865 230.332682 L 364.654948 281.915202 Z M 364.654948 323.342773 " transform="matrix(0.0338505,0,0,0.0338505,0,0)"/>
<path style="fill:none;stroke-width:12;stroke-linecap:round;stroke-linejoin:round;stroke:rgb(21.568627%,20.392157%,19.215686%);stroke-opacity:1;stroke-miterlimit:10;" d="M 168.364421 230.332682 L 126.936849 271.644857 L 126.936849 312.957031 L 209.676595 230.332682 Z M 168.364421 230.332682 " transform="matrix(0.0338505,0,0,0.0338505,0,0)"/>
<path style="fill:none;stroke-width:12;stroke-linecap:round;stroke-linejoin:round;stroke:rgb(21.568627%,20.392157%,19.215686%);stroke-opacity:1;stroke-miterlimit:10;" d="M 302.686686 230.332682 L 292.300944 230.332682 L 126.936849 395.696777 L 126.936849 437.008952 L 302.686686 261.259115 Z M 302.686686 230.332682 " transform="matrix(0.0338505,0,0,0.0338505,0,0)"/>
<path style="fill:none;stroke-width:12;stroke-linecap:round;stroke-linejoin:round;stroke:rgb(21.568627%,20.392157%,19.215686%);stroke-opacity:1;stroke-miterlimit:10;" d="M 302.686686 591.987305 L 292.300944 602.373047 L 302.686686 602.373047 Z M 302.686686 591.987305 " transform="matrix(0.0338505,0,0,0.0338505,0,0)"/>
<path style="fill:none;stroke-width:12;stroke-linecap:round;stroke-linejoin:round;stroke:rgb(21.568627%,20.392157%,19.215686%);stroke-opacity:1;stroke-miterlimit:10;" d="M 168.364421 147.592936 C 168.364421 124.859701 186.827962 106.280762 209.676595 106.280762 L 250.98877 106.280762 C 296.686035 106.280762 333.613118 143.323242 333.613118 189.020508 L 209.676595 188.905111 C 186.827962 188.905111 168.364421 170.441569 168.364421 147.592936 Z M 168.364421 147.592936 " transform="matrix(0.0338505,0,0,0.0338505,0,0)"/>
<path style="fill:none;stroke-width:12;stroke-linecap:round;stroke-linejoin:round;stroke:rgb(21.568627%,20.392157%,19.215686%);stroke-opacity:1;stroke-miterlimit:10;" d="M 250.98877 188.905111 C 228.140137 188.905111 209.676595 170.441569 209.676595 147.592936 C 209.676595 124.859701 228.140137 106.280762 250.98877 106.280762 L 209.676595 106.280762 C 186.827962 106.280762 168.364421 124.859701 168.364421 147.592936 C 168.364421 170.441569 186.827962 188.905111 209.676595 188.905111 Z M 250.98877 188.905111 " transform="matrix(0.0338505,0,0,0.0338505,0,0)"/>
<path style="fill:none;stroke-width:12;stroke-linecap:round;stroke-linejoin:round;stroke:rgb(21.568627%,20.392157%,19.215686%);stroke-opacity:1;stroke-miterlimit:10;" d="M 498.977214 147.592936 C 498.977214 124.859701 480.513672 106.280762 457.665039 106.280762 L 416.352865 106.280762 C 370.655599 106.280762 333.613118 143.323242 333.613118 189.020508 L 457.665039 188.905111 C 480.513672 188.905111 498.977214 170.441569 498.977214 147.592936 Z M 498.977214 147.592936 " transform="matrix(0.0338505,0,0,0.0338505,0,0)"/>
<path style="fill:none;stroke-width:12;stroke-linecap:round;stroke-linejoin:round;stroke:rgb(21.568627%,20.392157%,19.215686%);stroke-opacity:1;stroke-miterlimit:10;" d="M 416.352865 188.905111 C 439.201497 188.905111 457.665039 170.441569 457.665039 147.592936 C 457.665039 124.859701 439.201497 106.280762 416.352865 106.280762 L 457.665039 106.280762 C 480.513672 106.280762 498.977214 124.859701 498.977214 147.592936 C 498.977214 170.441569 480.513672 188.905111 457.665039 188.905111 Z M 416.352865 188.905111 " transform="matrix(0.0338505,0,0,0.0338505,0,0)"/>
<path style="fill:none;stroke-width:12;stroke-linecap:round;stroke-linejoin:round;stroke:rgb(21.568627%,20.392157%,19.215686%);stroke-opacity:1;stroke-miterlimit:10;" d="M 416.352865 375.04069 L 581.71696 375.04069 L 581.71696 602.373047 L 416.352865 602.373047 Z M 416.352865 375.04069 " transform="matrix(0.0338505,0,0,0.0338505,0,0)"/>
<path style="fill:none;stroke-width:12;stroke-linecap:round;stroke-linejoin:round;stroke:rgb(21.568627%,20.392157%,19.215686%);stroke-opacity:1;stroke-miterlimit:10;" d="M 416.352865 478.321126 L 364.654948 530.019043 L 364.654948 571.331217 L 416.352865 519.633301 Z M 416.352865 478.321126 " transform="matrix(0.0338505,0,0,0.0338505,0,0)"/>
<path style="fill:none;stroke-width:12;stroke-linecap:round;stroke-linejoin:round;stroke:rgb(21.568627%,20.392157%,19.215686%);stroke-opacity:1;stroke-miterlimit:10;" d="M 483.513997 375.04069 L 514.555827 375.04069 L 514.555827 602.373047 L 483.513997 602.373047 Z M 483.513997 375.04069 " transform="matrix(0.0338505,0,0,0.0338505,0,0)"/>
<path style="fill:none;stroke-width:12;stroke-linecap:round;stroke-linejoin:round;stroke:rgb(21.568627%,20.392157%,19.215686%);stroke-opacity:1;stroke-miterlimit:10;" d="M 395.696777 333.613118 L 602.373047 333.613118 L 602.373047 375.04069 L 395.696777 375.04069 Z M 395.696777 333.613118 " transform="matrix(0.0338505,0,0,0.0338505,0,0)"/>
<path style="fill:none;stroke-width:12;stroke-linecap:round;stroke-linejoin:round;stroke:rgb(21.568627%,20.392157%,19.215686%);stroke-opacity:1;stroke-miterlimit:10;" d="M 395.696777 375.04069 L 395.696777 333.613118 L 540.404785 333.613118 L 540.404785 230.332682 L 126.936849 230.332682 L 126.936849 602.373047 L 416.352865 602.373047 L 416.352865 375.04069 Z M 395.696777 375.04069 " transform="matrix(0.0338505,0,0,0.0338505,0,0)"/>
<path style="fill:none;stroke-width:12;stroke-linecap:round;stroke-linejoin:round;stroke:rgb(21.568627%,20.392157%,19.215686%);stroke-opacity:1;stroke-miterlimit:10;" d="M 478.321126 333.613118 L 540.404785 271.644857 L 540.404785 230.332682 L 437.008952 333.613118 Z M 478.321126 333.613118 " transform="matrix(0.0338505,0,0,0.0338505,0,0)"/>
<path style="fill:none;stroke-width:12;stroke-linecap:round;stroke-linejoin:round;stroke:rgb(21.568627%,20.392157%,19.215686%);stroke-opacity:1;stroke-miterlimit:10;" d="M 416.352865 375.04069 L 395.696777 375.04069 L 364.654948 405.967122 L 364.654948 447.279297 L 416.352865 395.696777 Z M 416.352865 375.04069 " transform="matrix(0.0338505,0,0,0.0338505,0,0)"/>
</g>
</svg>
